<svg width="27" height="35" viewBox="0 0 27 35" fill="none" xmlns="http://www.w3.org/2000/svg">
<path fill-rule="evenodd" clip-rule="evenodd" d="M3.01204e-07 33.9055V4.3749C3.01204e-07 3.2146 0.474106 2.10183 1.31802 1.28138C2.16193 0.460926 3.30653 0 4.5 0L22.5 0C23.6935 0 24.8381 0.460926 25.682 1.28138C26.5259 2.10183 27 3.2146 27 4.3749V33.9055C27.0001 34.0954 26.9494 34.2821 26.8528 34.4472C26.7562 34.6123 26.617 34.75 26.449 34.8469C26.281 34.9438 26.0899 34.9965 25.8946 34.9998C25.6992 35.0031 25.5064 34.9569 25.335 34.8658L13.5 28.5878L1.665 34.8658C1.49362 34.9569 1.30077 35.0031 1.10544 34.9998C0.910105 34.9965 0.719026 34.9438 0.551006 34.8469C0.382987 34.75 0.24382 34.6123 0.147205 34.4472C0.0505902 34.2821 -0.000142636 34.0954 3.01204e-07 33.9055ZM13.86 8.96854C13.8271 8.90295 13.7759 8.84766 13.7123 8.80898C13.6486 8.77031 13.5751 8.7498 13.5 8.7498C13.4249 8.7498 13.3514 8.77031 13.2877 8.80898C13.2241 8.84766 13.1729 8.90295 13.14 8.96854L11.7135 11.7794C11.6849 11.8363 11.6426 11.8855 11.59 11.9229C11.5375 11.9602 11.4764 11.9846 11.412 11.9938L8.217 12.4444C8.14345 12.4553 8.07446 12.4858 8.01777 12.5326C7.96107 12.5795 7.91892 12.6407 7.89602 12.7095C7.87313 12.7784 7.8704 12.852 7.88815 12.9222C7.9059 12.9925 7.94342 13.0565 7.9965 13.1072L10.305 15.2968C10.3995 15.3865 10.4423 15.5156 10.4198 15.6425L9.8775 18.7355C9.86527 18.8069 9.87377 18.8803 9.90204 18.9472C9.9303 19.0142 9.97722 19.0722 10.0375 19.1147C10.0978 19.1572 10.1691 19.1825 10.2434 19.1878C10.3177 19.1931 10.392 19.1781 10.458 19.1446L13.3155 17.6833C13.3728 17.6542 13.4365 17.639 13.5011 17.639C13.5658 17.639 13.6295 17.6542 13.6868 17.6833L16.5442 19.1446C16.6102 19.1775 16.6842 19.192 16.7581 19.1864C16.8321 19.1808 16.9029 19.1555 16.9629 19.113C17.0228 19.0706 17.0695 19.0129 17.0976 18.9462C17.1258 18.8796 17.1344 18.8066 17.1225 18.7355L16.578 15.6403C16.5665 15.5781 16.5708 15.5142 16.5904 15.454C16.61 15.3937 16.6443 15.3391 16.6905 15.2947L19.0035 13.105C19.0566 13.0543 19.0941 12.9903 19.1119 12.9201C19.1296 12.8498 19.1269 12.7762 19.104 12.7074C19.0811 12.6385 19.0389 12.5773 18.9822 12.5304C18.9255 12.4836 18.8566 12.4531 18.783 12.4422L15.588 11.9916C15.5236 11.9824 15.4625 11.958 15.41 11.9207C15.3574 11.8833 15.3151 11.8341 15.2865 11.7772L13.86 8.96854Z" fill="#E8630A"/>
</svg>
