<svg width="21" height="21" viewBox="0 0 21 21" fill="none" xmlns="http://www.w3.org/2000/svg">
<path d="M10.4895 0C4.6935 0 0 4.704 0 10.5C0 16.296 4.6935 21 10.4895 21C16.296 21 21 16.296 21 10.5C21 4.704 16.296 0 10.4895 0ZM10.5 18.9C5.859 18.9 2.1 15.141 2.1 10.5C2.1 5.859 5.859 2.1 10.5 2.1C15.141 2.1 18.9 5.859 18.9 10.5C18.9 15.141 15.141 18.9 10.5 18.9Z" fill="white" fill-opacity="0.5"/>
<path d="M11.025 5.25H9.45001V11.55L14.9625 14.8575L15.75 13.566L11.025 10.7625V5.25Z" fill="white" fill-opacity="0.5"/>
</svg>
