<svg width="27" height="34" viewBox="0 0 27 34" fill="none" xmlns="http://www.w3.org/2000/svg">
<path d="M25.668 17.9976C23.0648 11.2323 13.7957 10.8675 16.0342 1.03476C16.2001 0.305175 15.4207 -0.258593 14.7906 0.12278C8.77157 3.6712 4.44382 10.7846 8.07515 20.1034C8.37362 20.8661 7.47822 21.5791 6.83155 21.0817C3.83031 18.81 3.51526 15.5435 3.78056 13.2055C3.88005 12.3433 2.75252 11.9288 2.27165 12.6418C1.14412 14.3662 0 17.1519 0 21.347C0.630094 30.6326 8.47311 33.4846 11.2919 33.8494C15.3212 34.3634 19.6821 33.6173 22.816 30.7487C26.265 27.5485 27.5252 22.4414 25.668 17.9976ZM10.2805 26.338C12.6682 25.7577 13.8952 24.0332 14.2269 22.5077C14.774 20.1366 12.635 17.8152 14.0776 14.0678C14.6248 17.1685 19.4998 19.1085 19.4998 22.4911C19.6324 26.6862 15.0891 30.2844 10.2805 26.338Z" fill="white" fill-opacity="0.5"/>
</svg>
